<svg width="56" height="1044" viewBox="0 0 56 1044" fill="none" xmlns="http://www.w3.org/2000/svg">
<g clip-path="url(#clip0_202_3968)">
<rect x="56" y="886" width="60" height="6" transform="rotate(-180 56 886)" fill="#0E1BE2"/>
<rect x="56" y="869" width="60" height="7" transform="rotate(-180 56 869)" fill="#0E1BE2"/>
<rect x="56" y="852" width="60" height="7" transform="rotate(-180 56 852)" fill="#0E1BE2"/>
<rect x="56" y="834" width="60" height="6" transform="rotate(-180 56 834)" fill="#0E1BE2"/>
<rect x="56" y="817" width="60" height="7" transform="rotate(-180 56 817)" fill="#0E1BE2"/>
<rect x="56" y="800" width="60" height="7" transform="rotate(-180 56 800)" fill="#0E1BE2"/>
<rect x="56" y="782" width="60" height="6" transform="rotate(-180 56 782)" fill="#0E1BE2"/>
<rect x="56" y="765" width="60" height="7" transform="rotate(-180 56 765)" fill="#0E1BE2"/>
<rect x="56" y="747" width="60" height="6" transform="rotate(-180 56 747)" fill="#0E1BE2"/>
<rect x="56" y="730" width="60" height="6" transform="rotate(-180 56 730)" fill="#0E1BE2"/>
<rect x="56" y="713" width="60" height="7" transform="rotate(-180 56 713)" fill="#0E1BE2"/>
<rect x="56" y="695" width="60" height="6" transform="rotate(-180 56 695)" fill="#0E1BE2"/>
<rect x="56" y="678" width="60" height="7" transform="rotate(-180 56 678)" fill="#0E1BE2"/>
<rect x="56" y="661" width="60" height="7" transform="rotate(-180 56 661)" fill="#0E1BE2"/>
<rect x="56" y="643" width="60" height="6" transform="rotate(-180 56 643)" fill="#0E1BE2"/>
<rect x="56" y="626" width="60" height="7" transform="rotate(-180 56 626)" fill="#0E1BE2"/>
<rect x="56" y="609" width="60" height="7" transform="rotate(-180 56 609)" fill="#0E1BE2"/>
<rect x="56" y="591" width="60" height="6" transform="rotate(-180 56 591)" fill="#0E1BE2"/>
<rect x="56" y="574" width="60" height="7" transform="rotate(-180 56 574)" fill="#0E1BE2"/>
<rect x="56" y="557" width="60" height="7" transform="rotate(-180 56 557)" fill="#0E1BE2"/>
<rect x="56" y="539" width="60" height="6" transform="rotate(-180 56 539)" fill="#0E1BE2"/>
<rect x="56" y="522" width="60" height="7" transform="rotate(-180 56 522)" fill="#0E1BE2"/>
<rect x="56" y="505" width="60.0001" height="505" transform="rotate(-180 56 505)" fill="#0E1BE2"/>
<rect x="56" y="1044" width="60" height="16" transform="rotate(-180 56 1044)" fill="#0E1BE2"/>
<rect x="56" y="1000" width="60" height="15" transform="rotate(-180 56 1000)" fill="#0E1BE2"/>
<rect x="56" y="956" width="60" height="15" transform="rotate(-180 56 956)" fill="#0E1BE2"/>
<rect x="56" y="913" width="60" height="16" transform="rotate(-180 56 913)" fill="#0E1BE2"/>
</g>
<defs>
<clipPath id="clip0_202_3968">
<rect width="56" height="1044" fill="white"/>
</clipPath>
</defs>
</svg>
