<svg width="56" height="2064" viewBox="0 0 56 2064" fill="none" xmlns="http://www.w3.org/2000/svg">
<rect width="56" height="8" fill="#E4027F"/>
<rect y="991" width="56" height="8" fill="#E4027F"/>
<rect y="1453" width="23" height="8" fill="#E4027F"/>
<rect y="21" width="56" height="8" fill="#E4027F"/>
<rect y="1012" width="56" height="8" fill="#E4027F"/>
<rect y="1474" width="23" height="8" fill="#E4027F"/>
<rect y="42" width="56" height="8" fill="#E4027F"/>
<rect y="1033" width="56" height="8" fill="#E4027F"/>
<rect y="1495" width="23" height="8" fill="#E4027F"/>
<rect y="63" width="56" height="8" fill="#E4027F"/>
<rect y="1054" width="56" height="8" fill="#E4027F"/>
<rect y="1516" width="23" height="8" fill="#E4027F"/>
<rect y="84" width="56" height="8" fill="#E4027F"/>
<rect y="1075" width="56" height="8" fill="#E4027F"/>
<rect y="1537" width="23" height="8" fill="#E4027F"/>
<rect y="105" width="56" height="8" fill="#E4027F"/>
<rect y="1096" width="56" height="8" fill="#E4027F"/>
<rect y="1558" width="23" height="8" fill="#E4027F"/>
<rect y="126" width="56" height="8" fill="#E4027F"/>
<rect y="1117" width="56" height="8" fill="#E4027F"/>
<rect y="1579" width="23" height="8" fill="#E4027F"/>
<rect y="147" width="56" height="8" fill="#E4027F"/>
<rect y="1138" width="56" height="8" fill="#E4027F"/>
<rect y="1600" width="23" height="8" fill="#E4027F"/>
<rect y="168" width="56" height="8" fill="#E4027F"/>
<rect y="1159" width="56" height="8" fill="#E4027F"/>
<rect y="1621" width="23" height="8" fill="#E4027F"/>
<rect y="189" width="56" height="8" fill="#E4027F"/>
<rect y="1180" width="56" height="8" fill="#E4027F"/>
<rect y="1642" width="23" height="8" fill="#E4027F"/>
<rect y="210" width="56" height="8" fill="#E4027F"/>
<rect y="1201" width="56" height="8" fill="#E4027F"/>
<rect y="1663" width="23" height="8" fill="#E4027F"/>
<rect y="231" width="56" height="8" fill="#E4027F"/>
<rect y="1222" width="56" height="8" fill="#E4027F"/>
<rect y="1684" width="23" height="8" fill="#E4027F"/>
<rect y="252" width="56" height="8" fill="#E4027F"/>
<rect y="1243" width="56" height="8" fill="#E4027F"/>
<rect y="1705" width="23" height="8" fill="#E4027F"/>
<rect y="273" width="56" height="8" fill="#E4027F"/>
<rect y="1264" width="56" height="8" fill="#E4027F"/>
<rect y="1726" width="23" height="8" fill="#E4027F"/>
<rect y="294" width="56" height="8" fill="#E4027F"/>
<rect y="1285" width="56" height="8" fill="#E4027F"/>
<rect y="1747" width="23" height="8" fill="#E4027F"/>
<rect y="315" width="56" height="8" fill="#E4027F"/>
<rect y="1306" width="56" height="8" fill="#E4027F"/>
<rect y="1768" width="23" height="8" fill="#E4027F"/>
<rect y="336" width="56" height="8" fill="#E4027F"/>
<rect y="1327" width="56" height="8" fill="#E4027F"/>
<rect y="1789" width="23" height="8" fill="#E4027F"/>
<rect y="357" width="56" height="8" fill="#E4027F"/>
<rect y="1348" width="56" height="8" fill="#E4027F"/>
<rect y="1810" width="23" height="8" fill="#E4027F"/>
<rect y="378" width="56" height="8" fill="#E4027F"/>
<rect y="1369" width="56" height="8" fill="#E4027F"/>
<rect y="1831" width="23" height="8" fill="#E4027F"/>
<rect y="399" width="56" height="8" fill="#E4027F"/>
<rect y="1390" width="56" height="8" fill="#E4027F"/>
<rect y="1852" width="23" height="8" fill="#E4027F"/>
<rect y="420" width="56" height="8" fill="#E4027F"/>
<rect y="1411" width="56" height="8" fill="#E4027F"/>
<rect y="1873" width="23" height="8" fill="#E4027F"/>
<rect y="441" width="56" height="8" fill="#E4027F"/>
<rect y="1432" width="56" height="8" fill="#E4027F"/>
<rect y="1894" width="23" height="170" fill="#E4027F"/>
<rect y="462" width="56" height="8" fill="#E4027F"/>
<rect x="34" y="1453" width="22" height="611" fill="#E4027F"/>
<rect y="483" width="56" height="8" fill="#E4027F"/>
<rect y="504" width="56" height="8" fill="#E4027F"/>
<rect y="525" width="56" height="8" fill="#E4027F"/>
<rect y="546" width="56" height="8" fill="#E4027F"/>
<rect y="567" width="56" height="8" fill="#E4027F"/>
<rect y="588" width="56" height="19" fill="#E4027F"/>
<rect y="641" width="56" height="19" fill="#E4027F"/>
<rect y="694" width="56" height="19" fill="#E4027F"/>
<rect y="747" width="56" height="19" fill="#E4027F"/>
<rect y="800" width="56" height="19" fill="#E4027F"/>
<rect y="853" width="56" height="19" fill="#E4027F"/>
<rect y="906" width="56" height="19" fill="#E4027F"/>
<rect y="959" width="56" height="19" fill="#E4027F"/>
</svg>
